<?xml version="1.0" standalone="no"?>
<!DOCTYPE svg PUBLIC "-//W3C//DTD SVG 20010904//EN"
 "http://www.w3.org/TR/2001/REC-SVG-20010904/DTD/svg10.dtd">
<svg version="1.0" xmlns="http://www.w3.org/2000/svg"
 width="900.000000pt" height="900.000000pt" viewBox="0 0 900.000000 900.000000"
 preserveAspectRatio="xMidYMid meet">

<g transform="translate(0.000000,900.000000) scale(0.100000,-0.100000)"
fill="#000000" stroke="none">
<path d="M0 4500 l0 -4500 4500 0 4500 0 0 4500 0 4500 -4500 0 -4500 0 0
-4500z m4840 3885 c1101 -156 2005 -922 2319 -1965 57 -191 115 -499 97 -517
-3 -4 -6 3 -6 13 0 32 -23 72 -49 84 -13 6 -21 13 -18 17 4 3 -5 14 -18 25
-14 11 -25 27 -25 36 0 9 -17 36 -39 60 -21 23 -36 42 -32 42 3 0 -2 5 -11 11
-10 5 -18 17 -18 25 0 8 -5 12 -10 9 -6 -4 -10 -3 -9 2 3 20 -2 46 -8 40 -8
-8 -34 13 -28 22 2 4 -10 23 -27 41 l-31 34 -19 -24 c-65 -83 -87 -95 -111
-60 -14 20 -18 17 -111 -74 -81 -79 -100 -94 -122 -90 -17 3 -59 -12 -127 -45
-117 -56 -178 -84 -192 -86 -5 0 -9 -7 -7 -14 1 -7 -2 -10 -7 -6 -6 3 -37 -8
-71 -25 -33 -17 -71 -31 -85 -32 -14 -1 -25 -8 -25 -15 0 -6 -9 -10 -20 -8
-11 2 -20 1 -20 -3 0 -11 -60 -45 -61 -35 0 4 -3 0 -7 -9 -6 -15 -10 -15 -28
-5 -12 7 -32 18 -45 25 -13 7 17 -26 66 -73 145 -138 327 -261 478 -321 l80
-33 255 -328 c141 -181 267 -354 283 -386 88 -185 46 -393 -109 -538 -153
-144 -325 -175 -500 -88 -42 20 -95 62 -159 122 -85 81 -117 124 -295 390
l-200 299 -216 -324 c-152 -228 -235 -343 -283 -391 -166 -167 -379 -192 -566
-67 -70 46 -194 173 -220 224 l-18 35 -34 -64 c-55 -107 -172 -197 -292 -224
-27 -7 -273 -11 -636 -11 -551 0 -595 1 -652 19 -72 22 -136 58 -173 98 l-28
29 0 172 c-1 95 -3 172 -4 172 -23 0 -166 -62 -166 -72 0 -4 -9 -8 -20 -8 -11
0 -20 -5 -20 -11 0 -7 -11 -9 -30 -6 -22 5 -30 3 -30 -8 0 -8 -5 -15 -11 -15
-6 0 -1 -9 12 -20 l24 -19 -32 -13 c-18 -7 -33 -16 -33 -19 0 -4 -43 -24 -96
-44 -52 -21 -101 -44 -109 -51 -7 -8 -20 -14 -27 -14 -7 0 -22 -7 -32 -15 -11
-8 -28 -15 -39 -15 -11 0 -16 -5 -12 -12 4 -7 -1 -4 -10 7 -28 34 -131 257
-184 397 -52 139 -109 344 -135 487 -73 389 106 638 480 667 133 11 300 -23
421 -85 23 -11 45 -21 48 -21 3 0 5 297 5 659 l0 660 23 16 c12 9 51 25 87 35
61 19 103 20 690 22 707 3 666 7 787 -78 119 -85 202 -205 224 -327 33 -177
-67 -364 -239 -449 l-67 -33 -357 -3 -358 -3 0 -85 0 -84 260 0 c288 0 331 -7
431 -71 53 -33 175 -158 207 -210 56 -92 63 -212 20 -326 -27 -73 -127 -176
-208 -215 -90 -42 -142 -48 -435 -48 l-275 0 0 -85 0 -85 293 0 c326 0 371 -6
465 -63 57 -34 162 -130 205 -187 l27 -35 7 25 c17 65 92 172 398 566 182 233
331 428 332 432 1 4 -121 151 -273 327 -299 348 -335 401 -356 528 -33 198 79
395 279 494 73 36 82 38 174 38 l98 0 -18 30 c-10 17 -42 71 -71 120 -219 370
-429 588 -695 722 -124 63 -197 87 -210 71 -10 -13 -26 -22 -100 -54 -22 -10
-42 -21 -45 -24 -6 -7 -117 -60 -125 -60 -7 0 -161 -72 -296 -140 -53 -26
-106 -51 -118 -55 -12 -3 -32 -16 -45 -28 -13 -12 -54 -44 -90 -72 -36 -27
-85 -67 -107 -87 -22 -21 -45 -38 -50 -38 -5 0 -9 -7 -9 -15 0 -8 -6 -15 -13
-15 -7 0 -19 -11 -28 -25 l-15 -26 -43 86 c-38 74 -61 104 -61 77 0 -9 -59
-32 -84 -32 -9 0 -14 -4 -11 -10 3 -5 0 -10 -7 -10 -7 -1 -31 -9 -53 -20 -22
-11 -46 -19 -53 -20 -7 0 -10 -4 -7 -10 3 -5 -3 -10 -14 -10 -11 0 -36 -9 -56
-20 -20 -11 -40 -20 -44 -20 -5 0 -53 -21 -108 -46 -54 -25 -123 -57 -153 -71
-30 -14 -81 -38 -113 -54 l-57 -28 14 27 c29 57 163 220 270 331 211 216 476
412 746 550 281 143 664 251 992 280 145 13 491 6 628 -14z m-2787 -4195 c3
-11 3 -20 1 -20 -2 0 -8 9 -14 20 -6 11 -7 20 -2 20 6 0 12 -9 15 -20z m912
-3005 c14 -13 25 -31 25 -40 0 -22 -28 -18 -35 5 -7 24 -51 37 -74 23 -20 -13
-26 -50 -11 -68 7 -8 29 -19 50 -25 47 -13 73 -42 73 -80 0 -74 -107 -111
-152 -54 -12 15 -21 33 -21 40 0 22 28 16 35 -6 15 -46 72 -49 101 -4 15 22
15 26 0 48 -8 13 -29 27 -45 31 -79 17 -109 92 -55 134 36 28 79 27 109 -4z
m275 6 c19 -10 46 -33 58 -52 20 -28 23 -43 20 -87 -4 -45 -10 -59 -40 -88
-65 -66 -156 -64 -220 5 -33 35 -38 46 -38 89 0 115 119 187 220 133z m339 -2
c21 -11 43 -29 49 -40 11 -16 9 -19 -8 -19 -11 0 -20 4 -20 8 0 15 -58 42 -90
42 -38 0 -84 -23 -104 -52 -25 -35 -20 -101 9 -137 50 -58 126 -62 182 -9 25
24 43 17 27 -10 -19 -30 -72 -54 -118 -54 -85 0 -146 61 -146 144 0 113 121
183 219 127z m141 -124 c0 -122 -2 -145 -15 -145 -13 0 -15 23 -15 145 0 122
2 145 15 145 13 0 15 -23 15 -145z m246 16 c67 -156 69 -161 51 -161 -8 0 -24
23 -35 50 l-21 50 -66 0 -67 0 -21 -50 c-11 -27 -27 -50 -34 -50 -7 0 -13 4
-13 8 0 8 106 257 116 274 16 26 41 -7 90 -121z m134 -1 l0 -130 60 0 c47 0
60 -3 60 -15 0 -12 -15 -15 -75 -15 l-75 0 0 145 c0 122 2 145 15 145 13 0 15
-21 15 -130z m377 14 l78 -117 3 117 c2 94 5 116 17 116 13 0 15 -24 15 -145
0 -121 -2 -145 -15 -145 -8 0 -52 55 -97 123 l-83 122 -3 -122 c-2 -100 -5
-123 -17 -123 -13 0 -15 24 -15 145 0 138 1 145 20 145 14 0 42 -33 97 -116z
m331 104 c-3 -8 -28 -14 -66 -16 l-62 -3 0 -49 0 -50 60 0 c47 0 60 -3 60 -15
0 -12 -13 -15 -60 -15 l-60 0 0 -50 0 -49 62 -3 c38 -2 63 -8 66 -15 3 -10
-17 -13 -77 -13 l-81 0 0 145 0 145 81 0 c60 0 80 -3 77 -12z m182 -3 c0 -10
-10 -15 -30 -15 l-30 0 0 -130 c0 -109 -2 -130 -15 -130 -13 0 -15 21 -15 129
l0 130 -32 3 c-17 2 -33 9 -36 16 -3 9 17 12 77 12 65 0 81 -3 81 -15z m74
-92 c16 -60 32 -114 36 -122 4 -8 21 37 40 108 43 156 53 156 93 4 17 -62 33
-113 37 -113 4 0 17 37 29 83 35 130 42 147 57 147 10 0 13 -6 10 -17 -3 -10
-19 -67 -36 -128 -17 -60 -33 -118 -36 -127 -3 -10 -14 -18 -24 -18 -21 0 -19
-3 -54 129 -14 51 -27 95 -29 97 -1 2 -16 -48 -32 -111 -26 -99 -32 -115 -50
-115 -17 0 -26 20 -61 145 -35 124 -39 145 -25 145 13 0 24 -26 45 -107z m546
88 c19 -10 46 -33 58 -52 20 -28 23 -43 20 -87 -4 -45 -10 -59 -40 -88 -65
-66 -156 -64 -220 5 -33 35 -38 46 -38 89 0 115 119 187 220 133z m280 4 c50
-26 59 -105 15 -142 -14 -13 -33 -23 -41 -23 -11 0 -6 -12 17 -42 18 -24 37
-49 42 -55 7 -9 4 -13 -10 -13 -12 0 -36 24 -65 62 l-46 63 41 10 c31 7 45 17
56 39 12 25 11 31 -6 55 -16 21 -29 27 -72 29 l-51 3 0 -130 c0 -110 -2 -131
-15 -131 -13 0 -15 23 -15 145 l0 145 60 0 c35 0 74 -7 90 -15z m122 -65 l3
-80 63 80 c35 44 70 80 78 80 21 0 18 -6 -32 -68 -26 -31 -49 -62 -51 -69 -3
-6 18 -41 46 -76 55 -69 58 -77 37 -77 -7 0 -34 27 -61 61 -45 58 -48 59 -66
43 -13 -12 -19 -31 -19 -61 0 -32 -4 -43 -15 -43 -13 0 -15 23 -15 145 0 120
2 145 15 145 11 0 15 -18 17 -80z m2293 -940 c3 -6 -1 -7 -9 -4 -18 7 -21 14
-7 14 6 0 13 -4 16 -10z m122 -97 c-2 -21 -4 -4 -4 37 0 41 2 58 4 38 2 -21 2
-55 0 -75z m321 93 c-7 -8 -15 -12 -17 -11 -5 6 10 25 20 25 5 0 4 -6 -3 -14z
m111 -20 c-3 -3 -11 5 -18 17 -13 21 -12 21 5 5 10 -10 16 -20 13 -22z m69 22
c7 -7 11 -34 10 -63 l-1 -50 -6 55 c-5 44 -9 55 -23 54 -10 -1 -15 2 -12 7 7
12 18 11 32 -3z m-461 -35 c-3 -10 -5 -4 -5 12 0 17 2 24 5 18 2 -7 2 -21 0
-30z m-200 -5 c-3 -7 -5 -2 -5 12 0 14 2 19 5 13 2 -7 2 -19 0 -25z m80 0 c-3
-7 -5 -2 -5 12 0 14 2 19 5 13 2 -7 2 -19 0 -25z m196 -79 c-4 -4 -6 20 -3 54
l5 62 3 -54 c2 -30 0 -58 -5 -62z m54 19 c-2 -18 -4 -4 -4 32 0 36 2 50 4 33
2 -18 2 -48 0 -65z m60 10 c-2 -18 -4 -6 -4 27 0 33 2 48 4 33 2 -15 2 -42 0
-60z m120 50 c-3 -7 -5 -2 -5 12 0 14 2 19 5 13 2 -7 2 -19 0 -25z m-392 -18
c-3 -5 -12 -10 -18 -10 -7 0 -6 4 3 10 19 12 23 12 15 0z m81 -41 c2 -31 1
-31 -3 -4 -3 16 -10 34 -16 38 -8 6 -7 7 3 4 9 -2 16 -17 16 -38z m381 35 c-3
-3 -12 -4 -19 -1 -8 3 -5 6 6 6 11 1 17 -2 13 -5z m-575 -33 c2 -17 1 -28 -4
-25 -8 5 -12 54 -4 54 2 0 6 -13 8 -29z m75 -18 c-3 -10 -5 -2 -5 17 0 19 2
27 5 18 2 -10 2 -26 0 -35z m426 -4 c-6 -6 -7 3 -4 23 4 28 6 29 9 9 2 -13 0
-27 -5 -32z m84 19 c-3 -8 -6 -5 -6 6 -1 11 2 17 5 13 3 -3 4 -12 1 -19z
m-120 -20 c-3 -8 -6 -5 -6 6 -1 11 2 17 5 13 3 -3 4 -12 1 -19z"/>
<path d="M5596 7338 c3 -4 9 -8 15 -8 5 0 9 4 9 8 0 5 -7 9 -15 9 -8 0 -12 -4
-9 -9z"/>
<path d="M5890 7339 c0 -5 -4 -8 -9 -4 -5 3 -12 -4 -16 -15 -8 -25 -31 -26
-44 -2 -7 11 -10 13 -11 3 0 -10 -4 -11 -12 -3 -25 20 -129 8 -187 -21 -30
-15 -63 -27 -72 -27 -10 0 -22 -6 -26 -13 -4 -7 -33 -23 -63 -35 -30 -13 -99
-46 -152 -74 -54 -27 -98 -47 -98 -43 0 3 -14 -2 -31 -11 l-31 -16 51 -24 c83
-38 235 -193 384 -394 71 -96 136 -181 142 -189 11 -11 43 27 178 205 171 228
236 298 330 358 58 37 77 56 56 56 -6 0 -24 12 -39 28 -14 15 -35 29 -46 30
-10 2 -21 8 -23 14 -4 13 -91 49 -101 43 -5 -3 -11 -1 -15 5 -3 5 3 10 14 10
14 0 19 5 15 14 -3 8 -12 12 -20 9 -8 -3 -14 1 -14 8 -1 9 -4 8 -11 -3 -5 -10
-15 -18 -22 -18 -9 0 -9 2 -1 8 6 4 15 18 19 32 6 20 5 23 -6 13 -19 -19 -24
-17 -69 27 -39 39 -70 51 -70 29z m25 -29 c3 -6 -1 -7 -9 -4 -18 7 -21 14 -7
14 6 0 13 -4 16 -10z"/>
<path d="M5845 7330 c3 -5 8 -10 11 -10 2 0 4 5 4 10 0 6 -5 10 -11 10 -5 0
-7 -4 -4 -10z"/>
<path d="M5460 7290 c-13 -8 -12 -10 3 -10 9 0 17 5 17 10 0 12 -1 12 -20 0z"/>
<path d="M5990 7290 c20 -13 33 -13 25 0 -3 6 -14 10 -23 10 -15 0 -15 -2 -2
-10z"/>
<path d="M6105 7210 c3 -5 13 -10 21 -10 8 0 12 5 9 10 -3 6 -13 10 -21 10 -8
0 -12 -4 -9 -10z"/>
<path d="M5178 7143 c7 -3 16 -2 19 1 4 3 -2 6 -13 5 -11 0 -14 -3 -6 -6z"/>
<path d="M2580 4630 c-19 -11 -41 -19 -48 -20 -7 0 -29 -11 -50 -24 -20 -14
-74 -39 -119 -57 l-82 -32 26 -21 c18 -14 28 -16 31 -8 2 7 12 12 23 12 10 0
19 5 19 10 0 6 8 10 18 10 10 0 24 9 32 20 8 12 26 20 42 20 15 0 28 5 28 10
0 6 14 10 30 10 24 0 30 4 30 21 0 15 5 19 19 14 11 -3 25 1 34 10 9 8 20 15
26 15 6 0 8 7 5 15 -8 19 -21 18 -64 -5z"/>
<path d="M2240 4418 c-30 -15 -32 -18 -12 -18 13 0 30 7 39 15 22 23 13 24
-27 3z"/>
<path d="M2046 4321 c-4 -7 -5 -15 -2 -18 9 -9 19 4 14 18 -4 11 -6 11 -12 0z"/>
<path d="M2026 4262 c-3 -5 1 -9 9 -9 8 0 12 4 9 9 -3 4 -7 8 -9 8 -2 0 -6 -4
-9 -8z"/>
<path d="M3109 1165 c-62 -34 -79 -120 -34 -174 95 -112 267 -1 200 129 -28
54 -109 76 -166 45z"/>
<path d="M3868 1114 l-25 -59 29 -3 c15 -2 39 -2 52 0 l23 3 -27 59 -26 59
-26 -59z"/>
<path d="M5473 1160 c-40 -24 -53 -48 -53 -99 0 -77 81 -135 155 -111 47 16
85 63 85 106 0 100 -102 156 -187 104z"/>
</g>
</svg>
